<?xml version="1.0" encoding="utf-8"?>
<!-- Generator: Adobe Illustrator 22.1.0, SVG Export Plug-In . SVG Version: 6.00 Build 0)  -->
<svg version="1.1" id="Layer_1" xmlns="http://www.w3.org/2000/svg" xmlns:xlink="http://www.w3.org/1999/xlink" x="0px" y="0px"
	 viewBox="0 0 800 600" style="enable-background:new 0 0 800 600;" xml:space="preserve">
<style type="text/css">
	.st0{fill:#FFFFFF;}
	.st1{fill:none;}
	.st2{font-family:'ArialMT';}
	.st3{font-size:12px;}
	.st4{fill:none;stroke:#0B1700;stroke-miterlimit:10;}
	.st5{fill:#1D00FF;stroke:#0B1700;stroke-miterlimit:10;}
	.st6{fill:#17FF78;stroke:#0B1700;stroke-miterlimit:10;}
	.st7{fill:#F5FF45;stroke:#0B1700;stroke-miterlimit:10;}
	.st8{fill:#4552FF;}
	.st9{fill:#B9000E;}
	.st10{fill:#17F5FF;}
	.st11{fill:#D0AE00;}
	.st12{fill:#00E748;}
	.st13{fill:#020017;}
	.st14{fill:#5CEBFF;}
	.st15{fill:#FFBDA2;}
	.st16{fill:#008B06;}
	.st17{fill:#8B008A;}
	.st18{fill:#F9FF8B;}
	.st19{fill:none;stroke:#000000;stroke-width:0.5;stroke-linecap:round;stroke-linejoin:round;}
</style>
<g>
	<rect x="434.5" y="40.5" class="st0" width="92" height="22"/>
	<path d="M526,41v21h-91V41H526 M527,40h-93v23h93V40L527,40z"/>
</g>
<g>
	<rect x="168.5" y="82.5" class="st0" width="480" height="415"/>
	<path d="M648,83v414H169V83H648 M649,82H168v416h481V82L649,82z"/>
</g>
<rect x="461" y="46.5" class="st1" width="39" height="11"/>
<text transform="matrix(1 0 0 1 461 54.9854)" class="st2 st3">About</text>
<polygon class="st1" points="221,40.5 170.7,11.5 170.7,69.5 "/>
<rect x="209.9" y="37" class="st4" width="13.1" height="29.1"/>
<rect x="232.2" y="37.5" class="st4" width="13.1" height="29.1"/>
<rect x="268.4" y="36.5" class="st4" width="14" height="31"/>
<polygon class="st4" points="195.9,51.5 168.5,38 168.5,65 "/>
<rect x="199.5" y="469.5" class="st5" width="87" height="18"/>
<circle class="st6" cx="263.5" cy="405.5" r="10"/>
<rect x="205.5" y="223.5" class="st7" width="22" height="82"/>
<g>
	<rect x="228.5" y="272.5" class="st8" width="62" height="33"/>
	<path d="M290,273v32h-61v-32H290 M291,272h-63v34h63V272L291,272z"/>
</g>
<g>
	<rect x="228.5" y="224.5" class="st9" width="62" height="47"/>
	<path d="M290,225v46h-61v-46H290 M291,224h-63v48h63V224L291,224z"/>
</g>
<g>
	<rect x="291.5" y="272.5" class="st10" width="65" height="77"/>
	<path d="M356,273v76h-64v-76H356 M357,272h-66v78h66V272L357,272z"/>
</g>
<g>
	<rect x="357.5" y="224.5" class="st11" width="65" height="87.9"/>
	<path d="M422,225.1v86.8h-64v-86.8H422 M423,224h-66v89h66V224L423,224z"/>
</g>
<g>
	<rect x="423.5" y="272.5" class="st12" width="75" height="75"/>
	<path d="M498,273v74h-74v-74H498 M499,272h-76v76h76V272L499,272z"/>
</g>
<g>
	<rect x="423.5" y="224.5" class="st13" width="37" height="47"/>
	<path d="M460,225v46h-36v-46H460 M461,224h-38v48h38V224L461,224z"/>
</g>
<g>
	<rect x="461.5" y="224.5" class="st14" width="37" height="47"/>
	<path d="M498,225v46h-36v-46H498 M499,224h-38v48h38V224L499,224z"/>
</g>
<g>
	<rect x="206.5" y="167.5" class="st15" width="84" height="56"/>
	<path d="M290,168v55h-83v-55H290 M291,167h-85v57h85V167L291,167z"/>
</g>
<g>
	<rect x="206.5" y="306.5" class="st16" width="43" height="43"/>
	<path d="M249,307v42h-42v-42H249 M250,306h-44v44h44V306L250,306z"/>
</g>
<g>
	<rect x="499.5" y="224.5" class="st16" width="72" height="81"/>
	<path d="M571,225v80h-71v-80H571 M572,224h-73v82h73V224L572,224z"/>
</g>
<g>
	<rect x="357.5" y="132.5" class="st17" width="107" height="91"/>
	<path d="M464,133v90H358v-90H464 M465,132H357v92h108V132L465,132z"/>
</g>
<g>
	<rect x="465.5" y="167.5" class="st18" width="106" height="56"/>
	<path d="M571,168v55H466v-55H571 M572,167H465v57h107V167L572,167z"/>
</g>
<text transform="matrix(1 0 0 1 585.9912 54.957)" class="st2 st3">Details</text>
<g>
	<path d="M648,41v21h-91V41H648 M649,40h-93v23h93V40L649,40z"/>
</g>
<polygon class="st4" points="292,52.2 319.4,65.5 319.3,38.5 "/>
<polygon class="st4" points="371.9,52 344.5,38.5 344.5,65.5 "/>
<g>
	<g id="XMLID_1_">
		<g>
		</g>
		<g>
			<path class="st19" d="M378.2,71.5c6.7-4.8,10.9-12.2,10.9-20.5c0-8.4-4.3-15.8-11.1-20.6"/>
			<path class="st19" d="M374.9,34.4c5.4,3.9,8.8,9.9,8.8,16.6c0,7-3.8,13.2-9.5,17.1"/>
			<path class="st19" d="M371,64.1c4.4-3,7.3-7.7,7.3-13.1c0-5.2-2.7-9.8-6.8-12.8"/>
		</g>
	</g>
</g>
</svg>
